<svg xmlns:xlink="http://www.w3.org/1999/xlink" xmlns="http://www.w3.org/2000/svg" viewBox="0 0 708.66 635.38" width="538"  height="482.36734117912687" ><script xmlns="" id="bw-fido2-page-script"/>
  <defs>
    <style>
      .cls-1 {
        fill: #003160;
      }

      .cls-2 {
        fill: #fdc600;
      }

      .cls-3 {
        fill: #f68100;
      }

      .cls-4 {
        fill: #671f84;
      }

      .cls-5 {
        fill: #84ac37;
      }

      .cls-6 {
        fill: #dd2c3b;
      }

      .cls-7 {
        fill: #229ebc;
      }
    </style>
  </defs>
  <g id="Locatienaam">
    <g>
      <path class="cls-4" d="M126.01,591.88v13.18h17.79v9.33h-17.79v20.26h-12.15v-52.06h33.51v9.29h-21.37Z"/>
      <path class="cls-4" d="M163.42,603.31c1.14-2,2.46-3.57,3.95-4.72,1.49-1.14,3.2-1.71,5.13-1.71,1.67,0,3.02,.39,4.07,1.18l-.71,8.15c-.12,.52-.32,.88-.59,1.07-.27,.19-.65,.29-1.12,.29-.19,0-.44-.01-.75-.04-.31-.02-.63-.05-.96-.09-.33-.04-.67-.07-1.02-.11-.35-.04-.66-.05-.95-.05-1.62,0-2.91,.43-3.88,1.29s-1.78,2.05-2.45,3.57v22.51h-11.08v-37.05h6.57c.55,0,1.01,.05,1.38,.14,.37,.1,.68,.25,.93,.45s.44,.47,.57,.8c.13,.33,.24,.74,.34,1.21l.57,3.11Z"/>
      <path class="cls-4" d="M192.79,587.45c0,.88-.18,1.71-.54,2.48-.36,.77-.85,1.45-1.46,2.04-.62,.58-1.34,1.05-2.16,1.39-.82,.35-1.7,.52-2.63,.52s-1.75-.17-2.54-.52-1.48-.81-2.09-1.39c-.61-.58-1.08-1.26-1.43-2.04-.35-.77-.52-1.6-.52-2.48s.17-1.75,.52-2.54c.34-.79,.82-1.48,1.43-2.07,.61-.59,1.3-1.06,2.09-1.39,.79-.33,1.63-.5,2.54-.5s1.8,.17,2.63,.5c.82,.33,1.54,.8,2.16,1.39,.62,.6,1.11,1.29,1.46,2.07s.54,1.63,.54,2.54Zm-1.14,10.15v37.05h-11.08v-37.05h11.08Z"/>
      <path class="cls-4" d="M208.51,618.1c.36,3.1,1.3,5.34,2.82,6.73,1.52,1.39,3.49,2.09,5.9,2.09,1.29,0,2.39-.16,3.32-.46s1.76-.66,2.48-1.04,1.39-.73,2-1.04,1.24-.46,1.91-.46c.88,0,1.55,.32,2,.96l3.21,3.97c-1.14,1.31-2.38,2.38-3.7,3.2-1.32,.82-2.68,1.46-4.07,1.93-1.39,.46-2.79,.79-4.18,.96-1.39,.18-2.72,.27-3.98,.27-2.6,0-5.03-.42-7.31-1.27-2.28-.85-4.26-2.1-5.97-3.77-1.7-1.67-3.05-3.74-4.04-6.22-.99-2.48-1.48-5.36-1.48-8.65,0-2.48,.42-4.82,1.27-7.04s2.06-4.16,3.64-5.82,3.5-2.99,5.75-3.97,4.79-1.46,7.63-1.46c2.45,0,4.7,.38,6.73,1.14,2.04,.76,3.79,1.87,5.25,3.32s2.61,3.23,3.43,5.34c.82,2.11,1.23,4.5,1.23,7.16,0,.83-.04,1.51-.11,2.04-.07,.52-.2,.94-.39,1.25-.19,.31-.45,.52-.77,.64s-.73,.18-1.23,.18h-21.37Zm13.93-6.43c0-.88-.11-1.74-.34-2.57-.23-.83-.6-1.58-1.11-2.23-.51-.66-1.18-1.18-2.02-1.59s-1.85-.61-3.04-.61c-2.1,0-3.74,.6-4.93,1.8-1.19,1.2-1.98,2.94-2.36,5.2h13.79Z"/>
      <path class="cls-4" d="M261.45,605.7c-.29,.45-.59,.77-.91,.96-.32,.19-.73,.29-1.23,.29-.52,0-1.05-.11-1.57-.34-.52-.23-1.09-.47-1.7-.73-.61-.26-1.29-.51-2.05-.73-.76-.23-1.63-.34-2.61-.34-1.41,0-2.48,.27-3.23,.8-.75,.54-1.12,1.28-1.12,2.23,0,.69,.24,1.26,.73,1.71,.49,.45,1.14,.85,1.95,1.2,.81,.35,1.73,.67,2.75,.98,1.02,.31,2.07,.66,3.14,1.04,1.07,.38,2.12,.83,3.14,1.34,1.02,.51,1.94,1.14,2.75,1.89s1.46,1.66,1.95,2.73c.49,1.07,.73,2.36,.73,3.86,0,1.83-.33,3.53-1,5.07-.67,1.55-1.66,2.88-2.98,4-1.32,1.12-2.95,1.99-4.9,2.61s-4.17,.93-6.7,.93c-1.26,0-2.53-.12-3.79-.36-1.26-.24-2.48-.56-3.66-.96-1.18-.41-2.27-.89-3.27-1.45-1-.56-1.86-1.16-2.57-1.8l2.57-4.07c.29-.48,.65-.85,1.09-1.13,.44-.27,1.01-.41,1.7-.41,.64,0,1.22,.14,1.73,.43,.51,.29,1.07,.6,1.66,.93,.6,.33,1.29,.64,2.09,.93,.8,.29,1.8,.43,3.02,.43,.86,0,1.58-.09,2.18-.27,.59-.18,1.07-.42,1.43-.73s.62-.66,.79-1.04c.17-.38,.25-.77,.25-1.18,0-.74-.25-1.34-.75-1.82s-1.16-.89-1.96-1.23c-.81-.34-1.73-.67-2.77-.96s-2.09-.64-3.16-1.02c-1.07-.38-2.13-.84-3.16-1.38-1.04-.54-1.96-1.21-2.77-2.04s-1.46-1.83-1.96-3.02c-.5-1.19-.75-2.63-.75-4.32,0-1.57,.3-3.07,.91-4.48,.61-1.42,1.52-2.66,2.73-3.73,1.21-1.07,2.74-1.92,4.57-2.55,1.83-.63,3.98-.95,6.43-.95,1.33,0,2.63,.12,3.88,.36,1.25,.24,2.42,.57,3.52,1s2.1,.93,3,1.52,1.7,1.22,2.39,1.91l-2.5,3.89Z"/>
      <path class="cls-4" d="M280.82,581.16v53.48h-11.08v-53.48h11.08Z"/>
      <path class="cls-4" d="M287.5,602.74c2.24-1.98,4.72-3.45,7.45-4.41s5.65-1.45,8.77-1.45c2.24,0,4.26,.36,6.06,1.09,1.8,.73,3.32,1.74,4.57,3.04,1.25,1.3,2.21,2.84,2.88,4.63s1,3.74,1,5.86v23.15h-5.07c-1.05,0-1.84-.14-2.38-.43-.54-.29-.98-.88-1.34-1.79l-.79-2.04c-.93,.79-1.82,1.48-2.68,2.07-.86,.6-1.75,1.1-2.66,1.52-.92,.42-1.89,.73-2.93,.93s-2.19,.3-3.45,.3c-1.69,0-3.23-.22-4.61-.66-1.38-.44-2.55-1.09-3.52-1.95-.96-.86-1.71-1.92-2.23-3.2-.52-1.27-.79-2.75-.79-4.41,0-1.33,.33-2.69,1-4.05,.67-1.37,1.82-2.62,3.46-3.75,1.64-1.13,3.86-2.08,6.65-2.84,2.79-.76,6.3-1.19,10.54-1.29v-1.57c0-2.17-.45-3.73-1.34-4.7-.89-.96-2.16-1.45-3.8-1.45-1.31,0-2.38,.14-3.22,.43-.83,.29-1.58,.61-2.23,.96s-1.29,.68-1.91,.96c-.62,.29-1.36,.43-2.21,.43-.76,0-1.41-.19-1.93-.57-.52-.38-.95-.83-1.29-1.36l-2-3.47Zm19.94,16.83c-2.21,.1-4.04,.29-5.47,.57-1.43,.29-2.56,.64-3.39,1.07-.83,.43-1.41,.92-1.73,1.46-.32,.55-.48,1.14-.48,1.79,0,1.26,.35,2.15,1.04,2.66,.69,.51,1.7,.77,3.04,.77,1.43,0,2.68-.25,3.75-.75,1.07-.5,2.16-1.31,3.25-2.43v-5.14Z"/>
      <path class="cls-4" d="M335.52,601.6c.71-.67,1.45-1.29,2.21-1.86,.76-.57,1.58-1.05,2.45-1.45,.87-.39,1.81-.7,2.82-.93,1.01-.23,2.11-.34,3.3-.34,2.02,0,3.82,.35,5.38,1.05,1.56,.7,2.88,1.68,3.95,2.93,1.07,1.25,1.88,2.74,2.43,4.47,.55,1.73,.82,3.6,.82,5.63v23.54h-11.08v-23.54c0-1.81-.42-3.22-1.25-4.23-.83-1.01-2.06-1.52-3.68-1.52-1.21,0-2.35,.26-3.41,.77-1.06,.51-2.09,1.21-3.09,2.09v26.44h-11.08v-37.05h6.86c1.38,0,2.29,.62,2.72,1.86l.64,2.14Z"/>
      <path class="cls-4" d="M399.58,581.16v53.48h-6.86c-1.38,0-2.29-.62-2.72-1.86l-.86-2.82c-.74,.79-1.51,1.5-2.32,2.14-.81,.64-1.69,1.2-2.63,1.66-.94,.46-1.95,.82-3.04,1.07s-2.26,.38-3.52,.38c-1.93,0-3.72-.43-5.36-1.29s-3.06-2.1-4.25-3.72c-1.19-1.62-2.13-3.6-2.8-5.95-.68-2.35-1.02-5.02-1.02-8.02,0-2.76,.38-5.33,1.14-7.7,.76-2.37,1.84-4.42,3.23-6.14s3.07-3.08,5.02-4.06c1.95-.98,4.11-1.46,6.47-1.46,1.93,0,3.55,.27,4.86,.82,1.31,.55,2.5,1.29,3.57,2.21v-18.76h11.08Zm-11.08,26.37c-.83-.93-1.74-1.58-2.72-1.95s-2-.55-3.07-.55-1.96,.2-2.82,.61c-.86,.41-1.6,1.05-2.23,1.95-.63,.89-1.12,2.05-1.48,3.48-.36,1.43-.54,3.16-.54,5.18s.14,3.6,.43,4.93c.29,1.33,.68,2.41,1.2,3.23,.51,.82,1.12,1.41,1.84,1.77,.71,.36,1.51,.54,2.39,.54,.81,0,1.54-.08,2.2-.23,.65-.15,1.26-.38,1.8-.66,.55-.29,1.07-.65,1.55-1.09,.49-.44,.97-.95,1.45-1.52v-15.68Z"/>
      <path class="cls-4" d="M407.04,608.46h19.29v8.93h-19.29v-8.93Z"/>
      <path class="cls-4" d="M486.18,608.6c0,3.76-.65,7.27-1.95,10.5-1.3,3.24-3.13,6.06-5.48,8.45-2.36,2.39-5.2,4.27-8.52,5.63-3.32,1.36-7.01,2.04-11.06,2.04s-7.74-.68-11.08-2.04c-3.33-1.36-6.19-3.23-8.56-5.63s-4.2-5.21-5.5-8.45c-1.3-3.24-1.95-6.74-1.95-10.5s.65-7.26,1.95-10.5c1.3-3.24,3.13-6.05,5.5-8.43,2.37-2.38,5.22-4.25,8.56-5.61,3.33-1.36,7.03-2.04,11.08-2.04s7.74,.68,11.06,2.05c3.32,1.37,6.16,3.25,8.52,5.63,2.36,2.38,4.19,5.19,5.48,8.43,1.3,3.24,1.95,6.73,1.95,10.47Zm-12.36,0c0-2.57-.33-4.89-1-6.95-.67-2.06-1.63-3.81-2.88-5.23-1.25-1.43-2.78-2.52-4.59-3.29-1.81-.76-3.87-1.14-6.18-1.14s-4.41,.38-6.23,1.14c-1.82,.76-3.36,1.86-4.61,3.29-1.25,1.43-2.21,3.17-2.88,5.23-.67,2.06-1,4.38-1,6.95s.33,4.92,1,6.99,1.63,3.8,2.88,5.23c1.25,1.43,2.79,2.52,4.61,3.27s3.9,1.12,6.23,1.12,4.37-.38,6.18-1.12c1.81-.75,3.34-1.84,4.59-3.27,1.25-1.43,2.21-3.17,2.88-5.23,.67-2.06,1-4.39,1-6.99Z"/>
      <path class="cls-4" d="M509.08,597.02c2.81,0,5.37,.44,7.68,1.32,2.31,.88,4.29,2.14,5.95,3.79,1.66,1.64,2.94,3.64,3.86,5.98,.92,2.35,1.38,4.98,1.38,7.91s-.46,5.62-1.38,7.99c-.92,2.37-2.2,4.38-3.86,6.04s-3.64,2.93-5.95,3.82c-2.31,.89-4.87,1.34-7.68,1.34s-5.41-.45-7.74-1.34c-2.32-.89-4.32-2.17-6-3.82-1.68-1.66-2.98-3.67-3.89-6.04s-1.38-5.03-1.38-7.99,.46-5.57,1.38-7.91c.92-2.35,2.22-4.34,3.89-5.98,1.68-1.64,3.68-2.91,6-3.79,2.32-.88,4.9-1.32,7.74-1.32Zm0,29.98c2.55,0,4.42-.9,5.63-2.7,1.2-1.8,1.8-4.53,1.8-8.2s-.6-6.4-1.8-8.18-3.08-2.68-5.63-2.68-4.54,.89-5.75,2.68-1.82,4.51-1.82,8.18,.61,6.4,1.82,8.2c1.21,1.8,3.13,2.7,5.75,2.7Z"/>
      <path class="cls-4" d="M557.06,605.7c-.29,.45-.59,.77-.91,.96s-.73,.29-1.23,.29c-.52,0-1.05-.11-1.57-.34-.52-.23-1.09-.47-1.7-.73-.61-.26-1.29-.51-2.05-.73-.76-.23-1.63-.34-2.61-.34-1.41,0-2.48,.27-3.23,.8-.75,.54-1.12,1.28-1.12,2.23,0,.69,.24,1.26,.73,1.71,.49,.45,1.14,.85,1.95,1.2,.81,.35,1.73,.67,2.75,.98,1.02,.31,2.07,.66,3.14,1.04,1.07,.38,2.12,.83,3.14,1.34,1.02,.51,1.94,1.14,2.75,1.89,.81,.75,1.46,1.66,1.95,2.73,.49,1.07,.73,2.36,.73,3.86,0,1.83-.33,3.53-1,5.07-.67,1.55-1.66,2.88-2.98,4-1.32,1.12-2.95,1.99-4.89,2.61s-4.17,.93-6.7,.93c-1.26,0-2.52-.12-3.79-.36-1.26-.24-2.48-.56-3.66-.96-1.18-.41-2.27-.89-3.27-1.45-1-.56-1.86-1.16-2.57-1.8l2.57-4.07c.29-.48,.65-.85,1.09-1.13,.44-.27,1.01-.41,1.7-.41,.64,0,1.22,.14,1.73,.43,.51,.29,1.07,.6,1.66,.93,.59,.33,1.29,.64,2.09,.93s1.8,.43,3.02,.43c.86,0,1.58-.09,2.18-.27,.59-.18,1.07-.42,1.43-.73s.62-.66,.79-1.04c.17-.38,.25-.77,.25-1.18,0-.74-.25-1.34-.75-1.82-.5-.48-1.16-.89-1.97-1.23-.81-.34-1.73-.67-2.77-.96s-2.09-.64-3.16-1.02c-1.07-.38-2.13-.84-3.16-1.38-1.04-.54-1.96-1.21-2.77-2.04s-1.46-1.83-1.96-3.02c-.5-1.19-.75-2.63-.75-4.32,0-1.57,.3-3.07,.91-4.48,.61-1.42,1.52-2.66,2.73-3.73,1.21-1.07,2.74-1.92,4.57-2.55,1.83-.63,3.98-.95,6.43-.95,1.33,0,2.63,.12,3.88,.36,1.25,.24,2.42,.57,3.52,1,1.09,.43,2.1,.93,3,1.52s1.7,1.22,2.39,1.91l-2.5,3.89Z"/>
      <path class="cls-4" d="M578.61,635.22c-1.76,0-3.32-.26-4.66-.77s-2.48-1.24-3.39-2.18c-.92-.94-1.61-2.08-2.09-3.41-.48-1.33-.71-2.82-.71-4.47v-19.15h-3.14c-.57,0-1.06-.18-1.46-.55-.41-.37-.61-.91-.61-1.62v-4.32l5.9-1.14,2.18-9.04c.29-1.14,1.1-1.71,2.43-1.71h5.79v10.83h9.18v7.57h-9.18v18.4c0,.86,.21,1.57,.62,2.13s1.02,.84,1.8,.84c.4,0,.74-.04,1.02-.12,.27-.08,.51-.18,.71-.29,.2-.11,.39-.2,.57-.29,.18-.08,.39-.12,.62-.12,.33,0,.6,.08,.8,.23s.41,.4,.62,.73l3.36,5.25c-1.43,1.07-3.04,1.88-4.82,2.41-1.79,.54-3.63,.8-5.54,.8Z"/>
    </g>
  </g>
  <g id="Logo">
    <path class="cls-5" d="M251.88,187.38c-.25,.12-.52,.23-.77,.35,.06,.78,.07,1.56,.21,2.32,1.77,9.77,3.12,19.6,3.24,29.56,.03,2.36,.47,2.73,2.66,1.87,4.28-1.67,8.51-3.48,12.76-5.23,3.34-1.37,3.53-2.02,1.13-4.61-6.17-6.64-11.87-13.64-16.81-21.25-.69-1.07-1.61-2.01-2.42-3m103.1,112.07c9.58-.8,20.72-1.27,31.72-2.81,10.19-1.42,20.37-3.47,30.29-6.18,8.48-2.31,16.74-5.64,24.85-9.09,11.02-4.7,21.49-10.48,30.72-18.28,1.27-1.07,1.32-1.89,.11-2.83-2.58-2-5.2-3.94-7.82-5.89-1.5-1.11-2.9-.71-4.27,.36-1.75,1.37-3.5,2.76-5.36,3.97-8.93,5.8-18.32,10.7-28.33,14.43-12.58,4.69-25.5,8.02-38.73,10.1-11.6,1.83-23.32,2.51-35.07,2.24-7.71-.17-15.48-.15-23.11-1.13-9.55-1.23-19.06-3.01-28.42-5.26-14.15-3.38-27.7-8.5-40.23-15.98-4.72-2.8-9.19-6.02-13.68-9.17-1.59-1.11-2.87-1.17-4.41,.01-2.34,1.81-4.76,3.53-7.2,5.23-1.52,1.06-1.44,2.15-.15,3.25,1.98,1.68,3.88,3.49,6.04,4.91,13.16,8.76,27.24,15.63,42.31,20.62,13.74,4.55,27.75,7.71,42.08,9.38,8.99,1.06,18.05,1.37,28.66,2.12M225.06,86.48c.6,.22,.86,.39,1.14,.4,.66,.04,1.37,.16,2,0,6.33-1.63,11.87,.83,17.31,3.45,12.18,5.89,24.56,11.24,37.33,15.72,5.07,1.78,9.22,1,13.03-2.73,2.01-1.98,4.43-3.51,6.45-5.48,7.42-7.26,14.8-14.57,22.12-21.94,3.97-3.97,7.43-8.57,13.15-10.27,1.2-.36,2.46-.56,3.68-.89,1.4-.37,1.66-1.12,.67-2.23-1.34-1.49-2.64-3.02-4.03-4.47-2.98-3.09-4.73-6.87-5.72-10.93-2.12-8.66,.92-15.89,6.69-22.24,2.2-2.41,2.18-3.29,.01-5.64-9.06-9.84-20.51-15.26-33.44-17.75-3.69-.71-7.52-.67-11.29-1.05-7.89-.79-15.8-.29-23.49,1.23-10.8,2.13-21.23,5.7-30.82,11.27-12.05,7-21.65,16.31-27.07,29.44q-2.06,4.98,2.7,7.39c4.4,2.23,8.16,5.16,10.51,9.61,4.06,7.72,3.96,15.51,.4,23.36-.53,1.18-.88,2.44-1.34,3.73"/>
    <path class="cls-6" d="M513.35,97.46c1.55-.63,3.11-1.23,4.65-1.89,8.2-3.53,13.94-9.29,15.76-18.23,.92-4.51,.32-9-1.4-13.33-1.55-3.89-1.28-4.36,2.55-5.98,10.33-4.38,21.06-5.28,32.09-3.71,13.55,1.92,25.77,7.2,37.29,14.42,12.65,7.94,23.09,18.13,31.17,30.65,4.27,6.64,7.37,13.94,8.7,21.79,.72,4.28,1.04,8.65,1.27,13,.15,2.73-.43,2.87-3.04,3.22-4.02,.54-8.31,.71-11.92,2.29-8.73,3.82-13.02,11.1-13.59,20.54-.15,2.57-.03,5.15-.04,8.23-1.16-.49-1.9-.63-2.4-1.04-5.94-4.88-13.07-5.12-20.23-5.18-8.61-.07-17.23,.06-25.83-.21-5.77-.18-11.54-.77-17.28-1.42-4.71-.53-7.33-3.89-9.4-7.73-5.72-10.61-10.29-21.72-14.41-33.04-1.42-3.9-2.67-7.92-4.6-11.56-1.34-2.54-3.66-4.58-5.67-6.74-1.14-1.21-2.52-2.2-3.81-3.27,.05-.27,.1-.54,.15-.81"/>
    <path class="cls-3" d="M200.28,97.07c-1.35,1.17-2.12,1.95-3,2.56-4.23,2.94-6.93,6.91-8.85,11.69-4.83,12.06-9.93,24-14.98,35.96-.87,2.05-2.14,3.92-3.07,5.94-2.47,5.32-7.1,6.77-12.4,7.07-5.7,.34-11.4,.83-17.11,.92-8.38,.14-16.78,.26-25.14-.13-6.25-.29-11.68,1.5-16.85,4.69-.71,.43-1.6,.53-2.4,.8-.2-.83-.55-1.67-.55-2.5,.01-5.54-.24-11.07-3.18-15.96-3.57-5.96-8.41-10.35-15.68-11.26-2.28-.28-4.55-.68-6.83-.69s-2.83-.9-2.89-2.93c-.31-9.4,1.85-18.28,5.79-26.71,5.4-11.57,13.63-20.91,23.09-29.37,11.41-10.2,24.53-17.18,39.06-21.57,9.48-2.87,19.16-3.37,29.05-2.11,4.96,.63,9.49,2.23,14.06,3.97,3.35,1.27,3.77,2.09,2.52,5.54-2.06,5.65-2.89,11.39-.77,17.19,2.6,7.1,7.67,11.86,14.54,14.77,1.61,.68,3.27,1.25,5.59,2.14"/>
    <path class="cls-7" d="M487.88,87.41c-1.23,0-2.13,.16-2.94-.04-6.05-1.52-11.4,.61-16.76,2.96-10.2,4.46-20.38,8.99-30.68,13.21-3.82,1.56-7.94,2.41-11.94,3.52-2.38,.66-4.54,.2-6.45-1.47-2.96-2.59-6.13-4.96-8.9-7.73-8.47-8.45-16.79-17.02-25.14-25.59-3.54-3.63-7.38-6.6-12.61-7.46-2.32-.37-2.39-1.08-.67-2.87,3.72-3.88,7.27-7.84,8.8-13.2,2.44-8.57,.61-16.13-5.17-22.81-.59-.68-1.26-1.27-1.83-1.95-1.01-1.2-.96-2.33,.13-3.55,10.62-11.83,24.02-17.85,39.7-19.23,3.03-.27,6.05-.74,9.08-.78,15.97-.24,31.04,3.48,45.43,10.27,10.57,4.98,19.4,12.16,26.35,21.4,2.98,3.96,4.77,8.85,6.97,13.38,.81,1.66,.15,2.98-1.55,3.83-1.78,.9-3.6,1.79-5.25,2.91-6.53,4.36-10.22,10.31-10.4,18.35-.11,4.77,.5,9.32,2.76,13.58,.47,.88,.64,1.91,1.07,3.28"/>
    <path class="cls-1" d="M122.23,188.35c1.2-.1,2.4-.35,3.59-.29,2.21,.12,4.41,.61,6.62,.61,12.03,.08,24.08,.35,36.1-.08,4.78-.17,9.75-1.38,14.17-3.23,2.7-1.11,4.9-4.07,6.66-6.65,4.94-7.21,8.21-15.29,11.25-23.43,2.69-7.22,5.14-14.53,7.74-21.8,.41-1.16,1.02-2.26,1.78-3.91,.66,1.06,1.19,1.65,1.42,2.33,2.95,8.55,5.93,17.11,8.74,25.7,1.8,5.49,3.54,11.02,4.96,16.62,2.96,11.65,5.37,23.43,5.15,35.55-.1,5.7-.26,11.43-.97,17.08-.62,4.87-2.15,9.57-6.05,13.07-2.42,2.17-5.19,3.25-8.45,3.45-9.99,.62-18.94-2.94-27.82-6.78-10.54-4.56-20.33-10.52-29.41-17.47-9.43-7.2-18.39-14.99-27.52-22.57-2.35-1.93-4.6-3.98-6.87-6-.47-.43-.85-.98-1.27-1.47,.05-.25,.11-.5,.16-.74"/>
    <path class="cls-4" d="M503.02,130.5c.48,1.36,.98,2.72,1.45,4.09,4.29,12.57,8.23,25.3,14.26,37.18,2.19,4.33,4.85,8.6,8.14,12.1,4.18,4.48,10.31,5.11,16.11,5.27,12.92,.35,25.85,.37,38.78,.48,1.77,.01,3.55-.25,5.33-.28,.85-.02,1.71,.18,3.32,.39-1.33,1.44-2.13,2.54-3.15,3.38-10.07,8.44-19.87,17.22-30.33,25.14-13.61,10.31-28.28,18.89-44.76,23.95-5.55,1.71-11.3,2.42-16.96,1.56-5.32-.82-8.86-4.66-10.38-9.7-1.35-4.51-2.3-9.23-2.71-13.92-.97-10.86,.5-21.56,2.35-32.27,2.11-12.21,6.11-23.83,9.98-35.51,2.11-6.34,4.25-12.67,6.41-18.99,.35-1.01,.87-1.96,1.3-2.94,.3,.02,.58,.04,.86,.07"/>
    <path class="cls-3" d="M340.87,98.08c0,1.34,.07,2.68-.02,4-.4,6.51-.67,13.04-1.33,19.54-1.1,11.05-2.03,22.16-3.82,33.11-2.01,12.24-5.41,24.21-11.32,35.24-1.87,3.51-4.22,6.84-6.8,9.87-5.47,6.41-12.88,7.02-20.22,2.34-8.4-5.35-15.05-12.45-21.28-20.07-12.67-15.51-21.41-33.29-30.06-51.15-1.52-3.14-3.06-6.27-4.6-9.4-.23-.46-.52-.94-.6-1.43-.09-.69,0-1.39,.01-2.09,.63,.05,1.35-.05,1.9,.2,3.08,1.47,6.13,3.02,9.18,4.55,11.28,5.68,22.61,11.24,34.81,14.79,6.88,2,12.77,.83,18.47-3.75,10.3-8.29,19.25-17.84,27.63-27.98,1.89-2.29,3.84-4.53,5.79-6.76,.41-.47,.99-.79,1.49-1.18,.25,.05,.51,.12,.76,.18"/>
    <path class="cls-2" d="M372.94,98.38c2.09,2.22,4.28,4.36,6.26,6.67,7.56,8.87,14.99,17.86,23.88,25.47,3.59,3.08,7.47,5.82,11.3,8.61,.63,.45,1.68,.65,2.48,.52,9.3-1.43,18.21-4.22,26.72-8.2,8.01-3.75,15.93-7.65,23.9-11.46,1.42-.69,2.9-1.27,4.36-1.9,.18,.17,.36,.33,.54,.5-.22,.86-.31,1.8-.71,2.58-6.18,12.08-12.36,24.18-18.61,36.23-6.48,12.46-14.91,23.5-24.53,33.72-4.54,4.83-9.56,8.86-15.34,12-7.63,4.14-14.13,2.69-19.42-4.19-6.03-7.84-9.55-16.87-12.44-26.2-3.24-10.45-5.19-21.18-6.48-32.01-.95-8.02-1.27-16.11-1.85-24.17-.33-4.51-.6-9.02-.86-13.54-.08-1.42,0-2.86,0-4.29,.26-.12,.54-.23,.81-.35"/>
    <path class="cls-3" d="M461.58,187.9c-.21,1.41-.45,2.83-.62,4.25-1.02,8.67-2.02,17.34-3.02,26.02-.05,.43-.01,.89-.03,1.33-.2,2.77-1.01,3.31-3.54,2.23-4.58-1.94-9.13-3.91-13.7-5.88-2.19-.94-2.15-1.2-.55-3.08,5.81-6.91,11.56-13.89,17.31-20.85,1.18-1.43,2.28-2.92,3.41-4.4,.25,.13,.49,.25,.74,.38"/>
    <path class="cls-4" d="M356.84,167.23c.51,2.05,1.13,4.08,1.51,6.15,1.54,8.33,4.13,16.35,7.09,24.26,.92,2.45,.67,2.79-2.05,2.8-4.82,.02-9.63-.02-14.46-.07-2.52-.03-2.8-.53-1.99-2.99,1.95-5.9,3.96-11.78,5.75-17.73,1-3.33,1.61-6.76,2.45-10.13,.19-.8,.57-1.56,.87-2.34,.27,.02,.55,.03,.82,.05"/>
    <path class="cls-3" d="M83.06,497.89v25.54H0v-137.84H31.98v112.29h51.09Z"/>
    <path class="cls-3" d="M117.02,479.63c.95,8.2,3.44,14.14,7.47,17.83,4.03,3.69,9.24,5.54,15.61,5.54,3.4,0,6.34-.41,8.8-1.23,2.46-.82,4.65-1.73,6.58-2.74,1.92-1.01,3.69-1.92,5.3-2.75,1.61-.82,3.3-1.23,5.06-1.23,2.33,0,4.1,.85,5.3,2.55l8.51,10.5c-3.03,3.47-6.29,6.29-9.79,8.47-3.5,2.18-7.1,3.88-10.78,5.11s-7.38,2.08-11.07,2.55c-3.69,.47-7.21,.71-10.55,.71-6.88,0-13.33-1.12-19.35-3.36-6.02-2.24-11.29-5.56-15.8-9.98-4.51-4.41-8.07-9.9-10.69-16.46-2.62-6.56-3.93-14.19-3.93-22.9,0-6.56,1.12-12.77,3.36-18.63,2.24-5.86,5.45-11.01,9.65-15.42,4.19-4.41,9.27-7.91,15.23-10.5,5.96-2.59,12.69-3.88,20.2-3.88,6.5,0,12.44,1.01,17.83,3.03,5.39,2.02,10.03,4.95,13.91,8.8,3.88,3.85,6.91,8.56,9.08,14.14,2.18,5.58,3.26,11.91,3.26,18.97,0,2.21-.09,4.01-.28,5.39-.19,1.39-.54,2.49-1.04,3.31-.51,.82-1.18,1.39-2.03,1.7-.85,.32-1.94,.47-3.26,.47h-56.57Zm36.9-17.03c0-2.33-.3-4.6-.9-6.81-.6-2.21-1.58-4.18-2.93-5.91-1.36-1.73-3.14-3.14-5.35-4.21-2.21-1.07-4.89-1.61-8.04-1.61-5.55,0-9.9,1.59-13.06,4.78-3.15,3.18-5.23,7.77-6.24,13.76h36.52Z"/>
    <path class="cls-3" d="M219,479.63c.95,8.2,3.44,14.14,7.47,17.83,4.03,3.69,9.24,5.54,15.61,5.54,3.4,0,6.34-.41,8.8-1.23,2.46-.82,4.65-1.73,6.58-2.74,1.92-1.01,3.69-1.92,5.3-2.75,1.61-.82,3.3-1.23,5.06-1.23,2.34,0,4.1,.85,5.3,2.55l8.51,10.5c-3.03,3.47-6.29,6.29-9.79,8.47s-7.09,3.88-10.78,5.11c-3.69,1.23-7.38,2.08-11.07,2.55-3.69,.47-7.21,.71-10.55,.71-6.88,0-13.33-1.12-19.35-3.36-6.02-2.24-11.29-5.56-15.8-9.98-4.51-4.41-8.07-9.9-10.69-16.46-2.62-6.56-3.93-14.19-3.93-22.9,0-6.56,1.12-12.77,3.36-18.63,2.24-5.86,5.45-11.01,9.65-15.42,4.19-4.41,9.27-7.91,15.23-10.5,5.96-2.59,12.69-3.88,20.2-3.88,6.5,0,12.44,1.01,17.83,3.03,5.39,2.02,10.03,4.95,13.91,8.8,3.88,3.85,6.9,8.56,9.08,14.14,2.18,5.58,3.26,11.91,3.26,18.97,0,2.21-.09,4.01-.28,5.39-.19,1.39-.54,2.49-1.04,3.31s-1.18,1.39-2.03,1.7-1.94,.47-3.26,.47h-56.57Zm36.9-17.03c0-2.33-.3-4.6-.9-6.81-.6-2.21-1.58-4.18-2.93-5.91-1.36-1.73-3.14-3.14-5.35-4.21-2.21-1.07-4.89-1.61-8.04-1.61-5.55,0-9.9,1.59-13.06,4.78s-5.23,7.77-6.24,13.76h36.52Z"/>
    <path class="cls-3" d="M324.29,440.47c3.03-5.3,6.51-9.46,10.45-12.49,3.94-3.03,8.47-4.54,13.58-4.54,4.41,0,8.01,1.04,10.79,3.12l-1.89,21.57c-.32,1.39-.84,2.33-1.56,2.84s-1.72,.76-2.98,.76c-.51,0-1.17-.03-1.99-.09-.82-.06-1.67-.14-2.55-.24s-1.79-.19-2.7-.28c-.92-.09-1.75-.14-2.51-.14-4.29,0-7.71,1.14-10.26,3.4-2.56,2.27-4.72,5.43-6.48,9.46v59.6h-29.33v-98.11h17.41c1.45,0,2.66,.13,3.64,.38,.98,.25,1.8,.65,2.46,1.18,.66,.54,1.16,1.25,1.51,2.13,.35,.89,.65,1.96,.9,3.22l1.51,8.23Z"/>
    <path class="cls-3" d="M458.06,428.36v10.69c0,1.64-.46,2.93-1.37,3.88-.92,.94-2.48,1.67-4.68,2.18l-7.09,1.61c.38,1.39,.68,2.81,.9,4.26,.22,1.45,.33,2.97,.33,4.54,0,4.92-1.03,9.34-3.07,13.24-2.05,3.91-4.86,7.24-8.42,9.98-3.56,2.74-7.78,4.86-12.63,6.34-4.86,1.48-10.06,2.22-15.61,2.22-1.51,0-2.99-.05-4.45-.14-1.45-.09-2.87-.27-4.26-.52-2.14,1.32-3.22,2.81-3.22,4.44s.88,2.83,2.65,3.55c1.77,.73,4.1,1.23,7,1.51,2.9,.28,6.2,.47,9.89,.57,3.69,.1,7.46,.32,11.3,.66,3.85,.35,7.62,.93,11.3,1.75,3.69,.82,6.98,2.15,9.89,3.97,2.9,1.83,5.23,4.27,7,7.33,1.77,3.06,2.65,6.95,2.65,11.68,0,4.42-1.08,8.74-3.22,12.96-2.14,4.22-5.3,7.98-9.46,11.26-4.16,3.28-9.27,5.91-15.33,7.9-6.05,1.99-12.99,2.98-20.81,2.98s-14.33-.73-19.91-2.18c-5.58-1.45-10.22-3.36-13.91-5.72-3.69-2.36-6.42-5.09-8.18-8.18-1.77-3.09-2.65-6.31-2.65-9.65,0-4.35,1.26-7.98,3.78-10.88,2.52-2.9,6.06-5.23,10.6-7-2.4-1.45-4.29-3.31-5.68-5.58-1.39-2.27-2.08-5.21-2.08-8.8,0-1.45,.25-2.98,.76-4.59,.51-1.61,1.31-3.18,2.41-4.73s2.48-3.01,4.11-4.4c1.64-1.39,3.6-2.62,5.87-3.69-5.11-2.71-9.15-6.29-12.11-10.74-2.97-4.45-4.44-9.63-4.44-15.56,0-4.92,1.04-9.35,3.12-13.29,2.08-3.94,4.93-7.29,8.56-10.03,3.63-2.74,7.9-4.86,12.82-6.34s10.25-2.22,15.99-2.22c8.33,0,15.7,1.58,22.14,4.73h29.52Zm-28.95,98.67c0-2.34-1.04-4.02-3.12-5.06-2.08-1.04-4.79-1.78-8.13-2.22-3.35-.44-7.08-.71-11.21-.8-4.13-.1-8.25-.33-12.34-.71-1.83,1.26-3.33,2.67-4.5,4.21-1.17,1.54-1.75,3.29-1.75,5.25,0,1.39,.3,2.65,.9,3.79,.6,1.14,1.65,2.11,3.17,2.93,1.51,.82,3.55,1.47,6.1,1.94,2.55,.47,5.79,.71,9.7,.71,4.22,0,7.7-.25,10.41-.76s4.87-1.2,6.48-2.08c1.61-.89,2.73-1.94,3.36-3.17s.95-2.57,.95-4.02Zm-22.7-57.81c4.86,0,8.37-1.21,10.55-3.64,2.18-2.43,3.26-5.56,3.26-9.41s-1.09-7.09-3.26-9.37c-2.18-2.27-5.69-3.4-10.55-3.4s-8.37,1.13-10.55,3.4c-2.18,2.27-3.26,5.39-3.26,9.37,0,1.89,.27,3.63,.8,5.2,.54,1.58,1.37,2.95,2.51,4.11,1.13,1.17,2.57,2.08,4.3,2.75,1.73,.66,3.8,.99,6.2,.99Z"/>
    <path class="cls-3" d="M492.78,479.63c.94,8.2,3.44,14.14,7.47,17.83,4.03,3.69,9.23,5.54,15.61,5.54,3.4,0,6.34-.41,8.8-1.23,2.46-.82,4.65-1.73,6.57-2.74,1.93-1.01,3.69-1.92,5.3-2.75,1.61-.82,3.3-1.23,5.06-1.23,2.33,0,4.1,.85,5.3,2.55l8.51,10.5c-3.03,3.47-6.29,6.29-9.79,8.47-3.5,2.18-7.09,3.88-10.78,5.11-3.69,1.23-7.38,2.08-11.07,2.55-3.69,.47-7.21,.71-10.55,.71-6.88,0-13.32-1.12-19.35-3.36-6.02-2.24-11.29-5.56-15.8-9.98-4.51-4.41-8.08-9.9-10.69-16.46-2.62-6.56-3.93-14.19-3.93-22.9,0-6.56,1.12-12.77,3.36-18.63,2.24-5.86,5.45-11.01,9.65-15.42,4.19-4.41,9.27-7.91,15.23-10.5,5.96-2.59,12.69-3.88,20.2-3.88,6.5,0,12.44,1.01,17.83,3.03,5.39,2.02,10.03,4.95,13.91,8.8,3.88,3.85,6.9,8.56,9.08,14.14,2.18,5.58,3.26,11.91,3.26,18.97,0,2.21-.1,4.01-.28,5.39-.19,1.39-.54,2.49-1.04,3.31s-1.18,1.39-2.03,1.7-1.94,.47-3.26,.47h-56.57Zm36.89-17.03c0-2.33-.3-4.6-.9-6.81-.6-2.21-1.58-4.18-2.93-5.91-1.36-1.73-3.14-3.14-5.35-4.21-2.21-1.07-4.89-1.61-8.04-1.61-5.55,0-9.91,1.59-13.06,4.78-3.15,3.18-5.23,7.77-6.24,13.76h36.51Z"/>
    <path class="cls-3" d="M599.96,381.81v141.62h-29.33v-141.62h29.33Z"/>
    <path class="cls-3" d="M708.66,381.81v141.62h-18.16c-3.66,0-6.06-1.64-7.19-4.92l-2.27-7.47c-1.95,2.08-4.01,3.97-6.15,5.68-2.14,1.7-4.46,3.17-6.95,4.4-2.49,1.23-5.17,2.18-8.04,2.84-2.87,.66-5.98,.99-9.32,.99-5.11,0-9.84-1.14-14.19-3.4-4.35-2.27-8.1-5.55-11.26-9.84-3.15-4.29-5.63-9.54-7.43-15.75-1.8-6.21-2.7-13.29-2.7-21.24,0-7.31,1.01-14.11,3.03-20.39,2.02-6.28,4.88-11.7,8.56-16.27,3.69-4.57,8.12-8.15,13.29-10.74,5.17-2.59,10.88-3.88,17.12-3.88,5.11,0,9.4,.73,12.87,2.18,3.47,1.45,6.62,3.4,9.46,5.86v-49.67h29.33Zm-29.33,69.82c-2.21-2.46-4.6-4.18-7.19-5.15-2.59-.98-5.3-1.47-8.14-1.47s-5.2,.54-7.47,1.61c-2.27,1.07-4.24,2.79-5.91,5.15-1.67,2.36-2.98,5.44-3.92,9.22-.95,3.79-1.42,8.36-1.42,13.72s.38,9.53,1.13,13.05c.76,3.54,1.81,6.39,3.17,8.56,1.36,2.18,2.98,3.74,4.87,4.68,1.89,.94,4.01,1.42,6.34,1.42,2.14,0,4.08-.2,5.82-.61s3.32-.99,4.78-1.75c1.45-.76,2.82-1.72,4.11-2.89,1.29-1.16,2.57-2.51,3.83-4.02v-41.53Z"/>
  </g>
</svg>