<svg version="1.2" xmlns="http://www.w3.org/2000/svg" viewBox="0 0 603 97" width="603" height="97">
	<title>ovo_black-svg</title>
	<style>
		.s0 { fill: #000000 } 
	</style>
	<g id="Website">
		<g id="Home">
			<g id="logo/Logo-OVO-wit">
				<g id="Logo-gradient">
					<path id="Fill-1" fill-rule="evenodd" class="s0" d="m332 0.7c0.5 0 1.1 0.3 1.5 0.7l4.9 5q0.6 0.6 0.6 1.2 0 0.8-1 0.8h-2.5q-1.2 0-2.1-0.4l-4.5-2.9c-0.7-0.4-1.6-0.4-2.2 0l-4.6 2.9q-0.9 0.4-2.1 0.4h-2.4q-1 0-1-0.8 0-0.6 0.6-1.2l4.9-5c0.3-0.4 0.9-0.7 1.5-0.7zm268.6 0.1q0.7 0 1.2 0.4 0.4 0.5 0.4 1.2v44q0 0.6-0.4 1.1-0.5 0.5-1.2 0.5h-5.4q-0.6 0-1.1-0.5-0.5-0.5-0.5-1.1v-2.5q-3.6 4.7-10.5 4.7-6.7 0-10.3-4.2-3.6-4.3-3.9-11.5l-0.1-2.2 0.1-2.2q0.2-7 3.8-11.4 3.7-4.3 10.4-4.3 4 0 6.9 1.7c1.5 0.8 3.2-0.1 3.2-1.8v-10.3q0-0.7 0.5-1.2 0.5-0.4 1.1-0.4zm-15 40.7q3.8 0 5.6-2.5 1.9-2.4 2.1-6 0-0.8 0-2.5 0-1.8 0-2.6-0.2-3.3-2.1-5.6-1.9-2.4-5.6-2.4-7.1 0-7.6 8.8v2 2q0.5 8.8 7.6 8.8zm-282.6-40.7q0.7 0 1.2 0.4 0.4 0.5 0.4 1.2v44q0 0.6-0.4 1.1-0.5 0.5-1.2 0.5h-5.6q-0.6 0-1.1-0.5-0.5-0.5-0.5-1.1v-44q0-0.7 0.5-1.2 0.5-0.4 1.1-0.4zm-194.4 0q8.7 0 14 4.7 5.2 4.7 5.4 13.6 0.2 3.8 0.2 5.7 0 1.8-0.2 5.6-0.2 9.1-5.3 13.7-5.1 4.5-14.1 4.5-9.1 0-14.2-4.5-5-4.6-5.3-13.7-0.1-1.9-0.1-5.6 0-3.8 0.1-5.7 0.3-8.9 5.5-13.6 5.1-4.7 14-4.7zm0 40.1q4.4 0 7-2.6 2.6-2.7 2.8-8.2 0.1-4 0.1-5.4 0-1.5-0.1-5.4-0.2-5.4-2.8-8.1-2.7-2.7-7-2.7-4.4 0-7.1 2.7-2.6 2.7-2.8 8.1 0 2 0 5.4 0 3.4 0 5.4 0.2 5.5 2.8 8.1 2.6 2.7 7.1 2.7zm-88.3-40.1q8.8 0 14 4.7 5.2 4.7 5.5 13.6 0.1 3.8 0.1 5.7 0 1.8-0.1 5.6-0.3 9.1-5.4 13.7-5 4.5-14.1 4.5-9.1 0-14.1-4.5-5.1-4.6-5.3-13.7-0.1-1.9-0.1-5.6 0-3.8 0.1-5.7 0.2-8.9 5.4-13.6 5.2-4.7 14-4.7zm0 40.1q4.5 0 7.1-2.6 2.6-2.7 2.8-8.2 0.1-4 0.1-5.4 0-1.5-0.1-5.4-0.2-5.4-2.9-8.1-2.7-2.7-7-2.7-4.4 0-7 2.7-2.7 2.7-2.8 8.1-0.1 2-0.1 5.4 0 3.4 0.1 5.4 0.1 5.5 2.8 8.1 2.6 2.7 7 2.7zm432.7-39.4q0.7 0 1.2 0.4 0.5 0.5 0.5 1.2v43.2q0 0.7-0.5 1.2-0.5 0.5-1.1 0.5h-5.3q-1.3 0-2-1.2l-15.1-22.9c-1.1-1.8-3.8-1-3.8 1.1v21.4q0 0.6-0.4 1.1-0.5 0.5-1.2 0.5h-5.7q-0.7 0-1.2-0.5-0.4-0.5-0.4-1.1v-43.3q0-0.7 0.4-1.2 0.4-0.4 1.2-0.4h5.2q1.2 0 1.9 1.1l15.1 23.5c1.2 1.8 3.9 1 3.9-1.1v-21.9q0-0.7 0.4-1.2 0.5-0.4 1.2-0.4zm-265.6 0q0.7 0 1.2 0.4 0.4 0.5 0.4 1.2v4.8q0 0.7-0.4 1.1-0.5 0.5-1.2 0.5h-19.2c-1.1 0-2.1 0.9-2.1 2.1v8.3c0 1.2 1 2.1 2.1 2.1h17.9q0.7 0 1.2 0.5 0.4 0.4 0.4 1.1v4.8q0 0.6-0.4 1.1-0.5 0.5-1.2 0.5h-17.9c-1.1 0-2.1 0.9-2.1 2.1v14.3q0 0.6-0.4 1.1-0.5 0.5-1.2 0.5h-6q-0.7 0-1.2-0.5-0.4-0.5-0.4-1.1v-43.3q0-0.7 0.4-1.2 0.4-0.4 1.2-0.4zm-103.8 0q0.5 0 0.9 0.4 0.5 0.4 0.5 1l-0.2 0.6-14.1 42.6q-0.7 1.9-2.6 1.9h-7.4q-2 0-2.6-1.9l-14.2-42.6q-0.1-0.2-0.1-0.6 0-0.6 0.4-1 0.4-0.4 1-0.4h5.9q0.9 0 1.4 0.4 0.6 0.5 0.8 1l9.1 28c0.6 1.9 3.3 1.9 4 0l9.1-28q0.2-0.5 0.7-1 0.5-0.4 1.4-0.4zm435.3 11.3q7.7 0 12 4 4.3 4 4.6 11 0.1 0.8 0.1 2.9 0 2.1-0.1 2.9-0.3 7.1-4.6 11.1-4.2 3.9-12 3.9-7.8 0-12.1-3.9-4.2-4-4.6-11.1v-2.9-2.9q0.4-7 4.7-11 4.3-4 12-4zm0 29.1q3.5 0 5.4-2.2 1.9-2.2 2.1-6.4 0-0.7 0-2.6 0-1.9 0-2.6-0.2-4.2-2.1-6.5-1.9-2.2-5.4-2.2-3.5 0-5.4 2.2-2 2.3-2.1 6.5l-0.1 2.6 0.1 2.6q0.1 4.2 2.1 6.4 1.9 2.2 5.4 2.2zm-39.4-29.1q7.7 0 12 4 4.3 4 4.6 11 0.1 0.8 0.1 2.9 0 2.1-0.1 2.9-0.3 7.1-4.6 11.1-4.2 3.9-12 3.9-7.8 0-12.1-3.9-4.2-4-4.6-11.1v-2.9-2.9q0.4-7 4.7-11 4.3-4 12-4zm0 29.1q3.5 0 5.4-2.2 1.9-2.2 2.1-6.4 0-0.7 0-2.6 0-1.9 0-2.6-0.2-4.2-2.1-6.5-1.9-2.2-5.4-2.2-3.5 0-5.4 2.2-2 2.3-2.1 6.5l-0.1 2.6 0.1 2.6q0.1 4.2 2.1 6.4 1.9 2.2 5.4 2.2zm-108.2-29.1q6.1 0 9.7 3.9 3.6 4 3.6 11v18.7q0 0.6-0.5 1.1-0.4 0.5-1.1 0.5h-6q-0.7 0-1.1-0.5-0.5-0.5-0.5-1.1v-18.3q0-3.8-1.9-6-1.9-2.2-5.4-2.2-3.4 0-5.5 2.2-2 2.2-2 6v18.3q0 0.6-0.5 1.1-0.4 0.5-1.1 0.5h-5.9q-0.7 0-1.2-0.5-0.4-0.5-0.4-1.1v-31.4q0-0.7 0.4-1.1 0.5-0.5 1.2-0.5h5.5q0.7 0 1.1 0.5 0.5 0.4 0.5 1.1v2.7q4-4.9 11.1-4.9zm-43.4 0q7.9 0 11.5 3.5 3.6 3.5 3.6 9.2v20.9q0 0.6-0.5 1.1-0.4 0.5-1.1 0.5h-5.5q-0.7 0-1.2-0.5-0.4-0.5-0.4-1.1v-2.6q-1.5 2.1-4.2 3.5-2.6 1.3-6.6 1.3-3.4 0-6.2-1.3-2.8-1.4-4.5-3.7-1.6-2.3-1.6-5.1 0-4.5 3.7-7.3 3.6-2.8 10-3.8l9.1-1.4v-1.3q0-2.9-1.5-4.4-1.4-1.4-4.6-1.4-2.2 0-3.5 0.8-1.4 0.8-2.2 1.6-0.8 0.8-1.1 1.1-0.3 0.8-1 0.8h-5.2q-0.6 0-1-0.4-0.4-0.4-0.4-1.1 0-1.6 1.6-3.7 1.5-2.1 4.8-3.7 3.3-1.5 8-1.5zm-2.2 29.5q3.7 0 6-2.4 2.4-2.4 2.4-6.9v-1.4l-6.7 1.1q-7.6 1.2-7.6 5.1 0 2.1 1.7 3.3 1.8 1.2 4.2 1.2zm-52.5-29.5q4.5 0 7.8 1.4 3.2 1.4 4.9 3.4 1.7 2 1.7 3.5 0 0.6-0.4 1.1-0.5 0.4-1.1 0.4h-4.9q-0.8 0-1.2-0.5-0.4-0.4-1.5-1.3-1-0.9-2.3-1.4-1.2-0.5-3-0.5-2.5 0-3.8 1-1.3 1.1-1.3 2.8 0 1.2 0.6 2 0.6 0.8 2.6 1.5 1.9 0.7 5.7 1.4 12 2.4 12 10.5 0 4.7-4.1 7.6-4.1 2.9-11.4 2.9-5 0-8.4-1.5-3.4-1.5-5-3.5-1.7-2.1-1.7-3.5 0-0.7 0.5-1.1 0.4-0.4 1-0.4h5.4q0.6 0 1 0.5 0.3 0.3 1.5 1.3 1.1 1 2.6 1.6 1.5 0.5 3.3 0.5 2.7 0 4.3-1 1.7-1 1.7-3 0-1.3-0.8-2.1-0.7-0.8-2.7-1.5-1.9-0.7-5.9-1.6-5.6-1.2-8.3-3.7-2.7-2.4-2.7-6.5 0-2.6 1.6-5 1.6-2.4 4.7-3.9 3.2-1.4 7.6-1.4zm290.8 0.6q0.8 0 1.2 0.5 0.4 0.4 0.4 1.1v4.9q0 0.6-0.4 1.1-0.4 0.5-1.2 0.5h-5.2q-3.1 0-4.9 1.8-1.8 1.8-1.8 4.9v18.2q0 0.6-0.5 1.1-0.5 0.5-1.1 0.5h-5.9q-0.7 0-1.2-0.5-0.4-0.5-0.4-1.1v-31.3q0-0.7 0.4-1.2 0.5-0.5 1.2-0.5h5.4q0.8 0 1.2 0.5 0.5 0.5 0.5 1.2v2.7q3.3-4.4 9.5-4.4zm-309.7 0q0.6 0 1 0.4 0.4 0.4 0.4 0.9 0 0.5-0.2 1.1l-18.9 43.5q-0.5 1.3-1.8 1.3h-5.3q-0.6 0-1-0.4-0.4-0.4-0.4-0.9 0-0.5 0.2-1.1l4.9-11.5c0.3-0.5 0.3-1.1 0-1.6l-12.4-29.3q-0.2-0.6-0.2-0.9 0-0.6 0.4-1 0.4-0.5 1-0.5h5.5q1.2 0 1.8 1.3l6.9 16.9c0.7 1.8 3.1 1.8 3.9 0l7-16.9q0.6-1.3 1.8-1.3zm-37.8 0q0.7 0 1.1 0.5 0.5 0.4 0.5 1.1v4.9q0 0.6-0.5 1.1-0.4 0.5-1.1 0.5h-5.3q-3.1 0-4.9 1.8-1.8 1.8-1.8 4.9v18.2q0 0.6-0.5 1.1-0.4 0.5-1.1 0.5h-5.9q-0.7 0-1.1-0.5-0.5-0.5-0.5-1.1v-31.3q0-0.7 0.5-1.2 0.4-0.5 1.1-0.5h5.4q0.8 0 1.2 0.5 0.5 0.5 0.5 1.2v2.7q3.3-4.4 9.6-4.4zm190.9 26.8q0.8 0 1.2 0.4 0.4 0.4 0.4 1.2v4.5q0 0.7-0.4 1.1-0.5 0.5-1.2 0.5h-13q-0.7 0-1.2-0.5-0.4-0.4-0.4-1.1v-4.5q0-0.7 0.4-1.1 0.5-0.5 1.2-0.5zm-260 0q0.7 0 1.2 0.4 0.4 0.4 0.4 1.2v4.5q0 0.7-0.5 1.1-0.4 0.5-1.1 0.5h-13.1q-0.7 0-1.1-0.5-0.5-0.4-0.5-1.1v-4.5q0-0.7 0.5-1.1 0.4-0.5 1.1-0.5z"/>
					<path id="Fill-4" fill-rule="evenodd" class="s0" d="m602.2 72.1v18.8h-1.1l-0.3-1q-0.7 0.6-1.6 1-0.9 0.3-1.9 0.3-2.8 0-4.3-1.8-1.6-1.9-1.6-5 0-1.9 0.7-3.5 0.8-1.5 2.1-2.4 1.3-0.9 3.2-0.9 1.6 0 3.2 1.2v-6.4zm-1.7 16.3v-8.2q-0.7-0.6-1.5-0.9-0.7-0.3-1.8-0.3-2 0-3.1 1.5-1.1 1.5-1.1 3.8 0 2.5 1 4 1.1 1.5 3.2 1.5 1.9 0 3.3-1.4zm-15 2.4h-1.6v-12.9h1.1l0.4 2.1q0.9-0.8 2.2-1.4 1.2-0.7 2.1-0.7l0.4 1.3q-1.1 0-2.4 0.8-1.4 0.7-2.2 1.6zm-5.1-2.9q-0.7 1.5-2.2 2.4-1.4 0.9-3.3 0.9-1.9 0-3.2-0.9-1.3-0.9-2-2.4-0.7-1.6-0.7-3.6 0-1.9 0.8-3.4 0.7-1.6 2.1-2.4 1.4-0.9 3.3-0.9 2.9 0 4.4 1.8 1.6 1.8 1.6 5 0 2-0.8 3.5zm-2.1 0.4q1.2-1.5 1.2-3.8 0-2.5-1.1-4-1.1-1.5-3.2-1.5-2.1 0-3.3 1.5-1.2 1.4-1.2 3.8 0 2.5 1.1 4 1.1 1.5 3.2 1.5 2.1 0 3.3-1.5zm-11.9-0.4q-0.8 1.5-2.2 2.4-1.5 0.9-3.4 0.9-1.8 0-3.1-0.9-1.3-0.9-2-2.4-0.7-1.6-0.7-3.6 0-1.9 0.7-3.4 0.8-1.6 2.2-2.4 1.4-0.9 3.3-0.9 2.8 0 4.4 1.8 1.6 1.8 1.6 5 0 2-0.8 3.5zm-2.1 0.4q1.1-1.5 1.2-3.8 0-2.5-1.1-4-1.2-1.5-3.3-1.5-2.1 0-3.2 1.5-1.2 1.4-1.2 3.8 0 2.5 1.1 4 1.1 1.5 3.2 1.5 2.1 0 3.3-1.5zm-26 2.5v-18.1h1.1l9.5 13.1 0.9 1.6v-14.7h1.7v18.1h-1.1l-10.1-14.1-0.3-0.8v14.9zm-3.4-6.6h-6.6l-0.2-1.3h6.6zm-18 6.6h-1.6v-12.9h1.3l0.3 2q0.8-1 2.2-1.7 1.4-0.6 2.6-0.6 2 0 3 1.1 1 1.2 1 3.1v9h-1.7v-8.6q0-3.2-2.5-3.2-1 0-2.3 0.7-1.4 0.8-2.3 1.9zm-11.7-15.7l-1.4-0.2 2.6-3.8h1.6l2.7 3.8-1.5 0.2-2-2.9zm-1.7 4.7l-0.5-1.1q0.7-0.5 1.9-0.8 1.3-0.3 2.2-0.3 2.2 0 3.5 1.1 1.3 1.1 1.3 3.1v9h-1.3l-0.3-1.4q-0.6 0.7-1.7 1.2-1.1 0.5-2.2 0.5-2.1 0-3.2-1.1-1.1-1.1-1.1-2.8 0-1.8 1.2-2.9 1.3-1 3.4-1h3.6v-1.3q0-1.4-0.8-2.2-0.8-0.9-2.3-0.9-1.3 0-2 0.3-0.7 0.2-1.7 0.6zm0.2 7.4q0 1 0.6 1.8 0.7 0.8 2 0.8 1.2 0 2.2-0.6 1-0.6 1.8-1.5v-3.3h-3.7q-1.4 0-2.1 0.8-0.8 0.8-0.8 2zm-6.7 3.6v-18.5l1.7-0.3v18.8zm-12.1-0.7l0.5-1.2q1.9 0.9 3.6 0.9 1.6 0 2.6-0.5 0.9-0.6 0.9-1.7 0-1.5-3.5-2.7-1.9-0.6-3.1-1.5-1.1-0.9-1.1-2.3 0-1.7 1.3-2.6 1.2-0.9 3.4-0.9 0.9 0 2.1 0.3 1.2 0.3 1.8 0.7l-0.5 1.2q-0.9-0.4-1.6-0.7-0.8-0.2-1.8-0.2-1.4 0-2.3 0.6-0.8 0.6-0.8 1.5 0 0.8 0.9 1.4 0.8 0.6 2.4 1.1 4.3 1.5 4.3 4 0 1.7-1.3 2.7-1.3 0.9-3.8 0.9-0.9 0-2.1-0.2-1.2-0.3-1.9-0.8zm-8.5 3.3l0.8-2.4-4.8-12.7 1.3-0.7 4.2 11 4-10.7h1.6l-5.6 15.9q-0.4 1.1-1.4 1.8-0.9 0.8-2.2 1l-0.4-1q1.2-0.6 1.7-1 0.5-0.4 0.8-1.2zm-9.2-2.6h-1.6v-12.9h1.1l0.5 2.1q0.9-0.8 2.1-1.4 1.2-0.7 2.1-0.7l0.5 1.3q-1.2 0-2.5 0.8-1.3 0.7-2.2 1.6zm-5.4-8.6h-6.3v8.6h-1.7v-18.1h9.3l0.2 1.2h-7.8v7.1h6.1zm-26.8 7.9l0.5-1.2q1.9 0.9 3.6 0.9 1.6 0 2.6-0.5 0.9-0.6 0.9-1.7 0-1.5-3.5-2.7-1.9-0.6-3-1.5-1.2-0.9-1.2-2.3 0-1.6 1.3-2.6 1.3-0.9 3.4-0.9 0.9 0 2.1 0.3 1.2 0.3 1.8 0.7l-0.5 1.2q-0.9-0.4-1.6-0.7-0.8-0.2-1.8-0.2-1.4 0-2.2 0.6-0.9 0.6-0.9 1.5 0 0.8 0.9 1.4 0.8 0.6 2.4 1.1 4.4 1.5 4.4 4 0 1.7-1.4 2.7-1.3 1-3.8 1-0.9 0-2.1-0.3-1.2-0.3-1.9-0.8zm-4.9-15.4q-0.3-0.3-0.3-0.9 0-0.5 0.3-0.8 0.3-0.4 0.9-0.4 0.5 0 0.9 0.4 0.4 0.3 0.4 0.8 0 0.6-0.4 0.9-0.4 0.4-0.9 0.4-0.6 0-0.9-0.4zm1.8 17.8q0 1.1-0.3 1.9-0.2 0.7-0.9 1.3-0.6 0.5-1.9 0.9l-0.6-1.1q0.9-0.4 1.3-0.7 0.4-0.4 0.6-1 0.1-0.6 0.1-1.7v-14.2h1.7zm-7.1-14.5h1.7v12.9h-1.7zm0.8-2.9q-0.6 0-0.9-0.3-0.4-0.4-0.4-0.9 0-0.5 0.4-0.9 0.3-0.4 0.9-0.4 0.5 0 0.9 0.4 0.4 0.4 0.4 0.9 0 0.5-0.4 0.9-0.4 0.3-0.9 0.3zm-8.2 15.8l-3.1-10.5-2.7 10.5h-1.8l-3.6-12.6 1.4-0.7 3 11.1 3-10.7h1.6l3 10.7 2.9-10.7h1.7l-3.6 12.9zm-16.4 0h-1.6v-12.9h1.1l0.5 2q0.9-0.7 2.1-1.4 1.2-0.6 2.1-0.6l0.4 1.3q-1.1 0-2.4 0.7-1.3 0.8-2.2 1.7zm-4.3-6.4h-9.6q0 2.5 1.2 3.9 1.1 1.5 3.6 1.5 1.1 0 2-0.3 1-0.3 2.1-0.8l0.5 1.2q-1.1 0.6-2.1 0.9-1 0.3-2.4 0.3-3.3 0-4.9-1.9-1.7-1.8-1.7-5 0.1-3 1.6-4.8 1.5-1.9 4.3-1.9 2.8 0 4.1 1.9 1.3 1.9 1.3 5zm-9.5-1.1h7.8q-0.4-4.4-3.8-4.4-1.8 0-2.8 1.2-1 1.2-1.2 3.2zm-4.7-11.3v18.8h-1.1l-0.3-1q-0.7 0.6-1.7 0.9-0.9 0.4-1.8 0.4-2.8 0-4.4-1.9-1.5-1.8-1.5-4.9 0-1.9 0.7-3.5 0.7-1.5 2.1-2.4 1.3-0.9 3.2-0.9 1.5 0 3.1 1.2v-6.4zm-1.6 16.3v-8.2q-0.7-0.6-1.5-0.9-0.7-0.4-1.8-0.4-2 0-3.1 1.5-1.1 1.5-1.1 3.9 0 2.5 1 4 1.1 1.5 3.2 1.5 1.9 0 3.3-1.4zm-20.5 2.4h-1.6v-12.9h1.3l0.3 2q0.8-1 2.2-1.7 1.4-0.6 2.6-0.6 2 0 3 1.1 0.9 1.2 0.9 3.1v9h-1.6v-8.6q0-3.2-2.5-3.2-1 0-2.4 0.7-1.3 0.8-2.2 1.9zm-12.9-18.5q2.4 0 4.3 1.2 1.9 1.2 3 3.3 1 2.1 1 4.8 0 2.7-1.1 4.9-1.1 2.1-3 3.4-2 1.2-4.4 1.3-2.4 0-4.3-1.2-1.9-1.2-2.9-3.3-1.1-2.2-1.1-4.9 0-2.6 1.1-4.8 1.1-2.2 3-3.4 2-1.2 4.4-1.3zm-6.7 9.5q0 2.3 0.8 4.1 0.8 1.8 2.3 2.8 1.5 1 3.4 1 1.9 0 3.4-1 1.6-1.1 2.4-2.9 0.9-1.8 0.9-4.1 0-2.3-0.8-4.1-0.9-1.8-2.3-2.8-1.5-1-3.4-1-1.9 0-3.5 1-1.5 1.1-2.4 2.9-0.8 1.8-0.8 4.1zm-10.8-3.6l0.6 1.2h-2.9v8.1q0 1 0.4 1.6 0.4 0.6 1.4 0.6 0.5 0 1.1-0.2l0.3 1.3q-0.1 0.1-0.6 0.2-0.4 0.1-1.2 0.1-1.4 0-2.3-0.8-0.8-0.9-0.8-2.6v-8.3h-1.9v-1.2h1.9v-3.4l1.7-0.6v4zm-7.4 6.2h-9.6q0.1 2.5 1.2 4 1.1 1.4 3.6 1.4 1.1 0 2-0.3 1-0.2 2.1-0.8l0.5 1.2q-1.1 0.6-2.1 0.9-1 0.3-2.4 0.3-3.3 0-4.9-1.8-1.7-1.9-1.7-5 0.1-3 1.6-4.9 1.5-1.8 4.3-1.8 2.8 0 4.1 1.8 1.3 1.9 1.3 5zm-9.5-1.1h7.8q-0.4-4.4-3.8-4.4-1.8 0-2.8 1.2-1 1.2-1.2 3.2zm-3.3-4.5l-8.3 10.7h7.9l0.2 1.3h-9.9l-0.2-0.8 8.2-10.8h-7l-0.4-1.3h9.4zm-11.8 5.7h-9.6q0 2.5 1.2 3.9 1.1 1.5 3.6 1.5 1.1 0 2-0.3 1-0.3 2-0.9l0.6 1.3q-1.1 0.6-2.1 0.9-1 0.3-2.4 0.3-3.3 0-4.9-1.9-1.7-1.8-1.7-5 0-3 1.6-4.8 1.5-1.9 4.3-1.9 2.7 0 4.1 1.9 1.3 1.9 1.3 5zm-9.6-1.1h7.9q-0.4-4.4-3.8-4.4-1.8 0-2.9 1.2-1 1.2-1.2 3.2zm-4.5-5.4v14.5q0 1.3-0.7 2.3-0.6 1-1.9 1.6-1.3 0.6-2.9 0.6-0.9 0-2.3-0.4-1.3-0.3-2.1-0.7l0.5-1.3q0.9 0.4 1.7 0.7 0.9 0.3 2.1 0.3 1.7 0 2.8-0.8 1.1-0.8 1.1-2.3v-2.4q-1.5 1.1-3.2 1.1-2.8 0-4.4-1.9-1.5-1.8-1.5-4.9 0-2 0.7-3.5 0.7-1.5 2.1-2.4 1.3-0.9 3.2-0.9 1.6 0 3.3 1.3l0.4-0.9zm-1.7 10.4v-8.1q-0.7-0.6-1.4-1-0.8-0.3-1.8-0.3-2.1 0-3.1 1.5-1.1 1.5-1.2 3.9 0.1 2.5 1.1 3.9 1 1.5 3.1 1.5 1.9 0 3.3-1.4zm-11.6-10.2l0.5 1.3h-2.9v8.1q0 1 0.5 1.6 0.4 0.6 1.4 0.6 0.5 0 1-0.3l0.4 1.4q-0.1 0-0.6 0.1-0.4 0.2-1.2 0.2-1.4 0-2.3-0.9-0.8-0.9-0.8-2.5v-8.3h-1.9l-0.1-1.3h2v-3.3l1.6-0.6v3.9zm-11.2 12.6h-1.7v-12.8h1.1l0.5 2q0.9-0.7 2.1-1.4 1.2-0.6 2.1-0.6l0.5 1.3q-1.2 0-2.5 0.7-1.3 0.7-2.1 1.6zm-5.1-2.9q-0.8 1.6-2.2 2.4-1.5 0.9-3.4 0.9-1.8 0-3.1-0.9-1.3-0.9-2-2.4-0.7-1.6-0.7-3.6 0-1.9 0.7-3.4 0.8-1.5 2.2-2.4 1.4-0.9 3.3-0.9 2.8 0 4.4 1.8 1.6 1.9 1.6 5.1 0 1.9-0.8 3.4zm-2.1 0.4q1.1-1.5 1.2-3.8 0-2.5-1.1-4-1.2-1.5-3.3-1.5-2.1 0-3.2 1.5-1.2 1.5-1.2 3.8 0 2.5 1.1 4 1.1 1.5 3.2 1.5 2.1 0 3.3-1.5zm-12-0.4q-0.7 1.6-2.2 2.4-1.4 0.9-3.3 0.9-1.8 0-3.2-0.9-1.3-0.9-2-2.4-0.7-1.6-0.7-3.6 0.1-1.9 0.8-3.4 0.7-1.5 2.1-2.4 1.4-0.9 3.3-0.9 2.9 0 4.4 1.8 1.6 1.9 1.6 5.1 0 1.9-0.8 3.4zm-2.1 0.4q1.2-1.5 1.2-3.8 0-2.5-1.1-4-1.1-1.5-3.2-1.5-2.1 0-3.3 1.5-1.2 1.5-1.2 3.8 0 2.5 1.1 4 1.1 1.5 3.2 1.5 2.1 0 3.3-1.5zm-17.9 0.4l5.9-15.9h1.5l-6.6 18h-1.7l-6.9-17.9 1.6-0.3zm-19.2 2.2h-1.6v-12.9h1.1l0.4 2q0.9-0.7 2.2-1.4 1.2-0.6 2.1-0.6l0.4 1.3q-1.1 0-2.4 0.7-1.4 0.8-2.2 1.7zm-13.4-11l-0.6-1.2q0.7-0.4 2-0.8 1.3-0.3 2.2-0.3 2.2 0 3.5 1.2 1.3 1.1 1.3 3v9.1h-1.4l-0.2-1.4q-0.6 0.7-1.7 1.2-1.1 0.5-2.2 0.5-2.1 0-3.2-1.1-1.2-1.1-1.2-2.8 0-1.9 1.3-2.9 1.3-1 3.4-1h3.5v-1.3q0-1.4-0.7-2.3-0.8-0.8-2.3-0.8-1.3 0-2 0.2-0.7 0.2-1.7 0.7zm0.2 7.4q0 1 0.6 1.8 0.7 0.8 2 0.8 1.2 0 2.2-0.6 1-0.6 1.7-1.5v-3.3h-3.6q-1.4 0-2.2 0.8-0.7 0.8-0.7 2zm-13.1-7.4l-0.5-1.2q0.7-0.4 1.9-0.8 1.3-0.3 2.2-0.3 2.2 0 3.5 1.2 1.3 1.1 1.3 3v9.1h-1.3l-0.2-1.4q-0.7 0.7-1.8 1.2-1.1 0.5-2.2 0.5-2.1 0-3.2-1.1-1.1-1.1-1.1-2.8 0-1.9 1.2-2.9 1.3-1 3.4-1h3.6v-1.3q0-1.4-0.8-2.3-0.8-0.8-2.3-0.8-1.3 0-2 0.2-0.7 0.2-1.7 0.7zm0.2 7.4q0 1 0.7 1.8 0.6 0.8 2 0.8 1.1 0 2.1-0.6 1-0.6 1.8-1.5v-3.3h-3.7q-1.4 0-2.1 0.8-0.8 0.8-0.8 2zm-5.5-7.8q1.5 1.9 1.5 4.9 0 2-0.7 3.5-0.7 1.6-2 2.4-1.4 0.9-3.2 0.9-1.8 0-3.5-1.4l-0.4 1.1h-1.1v-18.5l1.7-0.3v6.8q1.5-1.3 3.4-1.3 2.8 0 4.3 1.9zm-1.2 8.8q1-1.5 1.1-3.8 0-2.5-1.1-4-1-1.5-3.1-1.5-1.1 0-1.9 0.4-0.8 0.4-1.5 1.1v7.9q0.7 0.7 1.5 1.1 0.7 0.3 1.8 0.3 2.1 0 3.2-1.5zm-20.5 2.6h-1.7v-12.9h1.4l0.2 1.9q0.9-0.9 2.2-1.6 1.4-0.7 2.6-0.7 2 0 3 1.2 1 1.2 1 3.1v8.9h-1.7v-8.6q0-3.2-2.5-3.2-1 0-2.3 0.8-1.4 0.8-2.2 1.9zm-4.4-6.4h-9.6q0.1 2.5 1.2 3.9 1.2 1.5 3.6 1.5 1.1 0 2.1-0.3 0.9-0.3 2-0.8l0.5 1.2q-1.1 0.6-2.1 0.9-1 0.3-2.4 0.3-3.2 0-4.9-1.8-1.6-1.9-1.6-5 0-3 1.5-4.9 1.6-1.9 4.3-1.9 2.8 0 4.1 1.9 1.3 1.9 1.3 5zm-9.5-1.1h7.9q-0.5-4.4-3.9-4.4-1.8 0-2.8 1.2-1 1.2-1.2 3.2zm-5.2-3.9q1.6 1.9 1.6 4.9 0 2-0.7 3.5-0.7 1.6-2.1 2.4-1.3 0.9-3.2 0.9-1.6 0-3.3-1.3v6.5l-1.6 0.3v-18.7h1.1l0.3 1q0.8-0.6 1.7-1 0.9-0.4 1.9-0.4 2.8 0 4.3 1.9zm-1.2 8.8q1.1-1.5 1.1-3.8 0-2.5-1-4-1.1-1.5-3.2-1.5-1 0-1.9 0.4-0.8 0.4-1.5 1.1v8q0.7 0.6 1.5 1 0.8 0.3 1.9 0.3 2 0 3.1-1.5zm-19.6-15.9q2.4 0 4.3 1.2 1.9 1.2 3 3.3 1.1 2.1 1.1 4.8 0 2.7-1.1 4.9-1.1 2.1-3.1 3.4-1.9 1.2-4.3 1.2-2.4 0-4.3-1.2-1.9-1.1-3-3.3-1-2.1-1-4.8 0-2.7 1-4.8 1.1-2.2 3.1-3.4 1.9-1.3 4.3-1.3zm-6.7 9.5q0 2.2 0.9 4 0.8 1.8 2.3 2.9 1.5 1 3.3 1 2 0 3.5-1.1 1.5-1 2.4-2.8 0.9-1.9 0.9-4.2 0-2.2-0.9-4-0.8-1.8-2.3-2.8-1.5-1-3.3-1-2 0-3.5 1-1.6 1-2.4 2.9-0.9 1.8-0.9 4.1zm-11.1-3.9v14.5q0 1.3-0.7 2.3-0.6 1-1.9 1.6-1.2 0.6-2.9 0.6-0.9 0-2.2-0.3-1.4-0.4-2.2-0.8l0.5-1.2q0.9 0.4 1.7 0.6 0.9 0.3 2.2 0.3 1.7 0 2.7-0.8 1.1-0.8 1.1-2.3v-2.4q-1.5 1.1-3.2 1.1-2.8 0-4.4-1.8-1.5-1.9-1.5-5 0-1.9 0.7-3.5 0.7-1.5 2.1-2.4 1.3-0.9 3.2-0.9 1.6 0 3.3 1.4l0.4-1zm-1.7 10.5v-8.2q-0.6-0.6-1.4-1-0.8-0.3-1.8-0.3-2 0-3.1 1.5-1.1 1.5-1.1 3.9 0 2.5 1 4 1 1.4 3.1 1.4 1.9 0 3.3-1.3zm-20.4 2.4h-1.7v-12.9h1.4l0.3 1.9q0.8-0.9 2.2-1.6 1.4-0.7 2.6-0.7 2 0 2.9 1.2 1 1.2 1 3.1v8.9h-1.6v-8.6q0-3.2-2.5-3.2-1 0-2.4 0.8-1.3 0.8-2.2 1.9zm-6.8-12.9h1.7v12.9h-1.7zm0.8-2.8q-0.5 0-0.9-0.4-0.3-0.4-0.3-0.9 0-0.5 0.3-0.9 0.4-0.3 0.9-0.3 0.5 0 0.9 0.3 0.4 0.4 0.4 0.9 0 0.5-0.4 0.9-0.4 0.4-0.9 0.4zm-4.1 3l0.6 1.3h-2.9v8.1q0 1 0.4 1.6 0.4 0.6 1.4 0.6 0.5 0 1.1-0.3l0.3 1.4q-0.1 0-0.5 0.2-0.5 0.1-1.3 0.1-1.4 0-2.3-0.9-0.8-0.9-0.8-2.5v-8.3h-1.9v-1.3h1.9v-3.3l1.7-0.6v3.9zm-9 0.6q0.9 1.2 0.9 3.1v8.9h-1.6v-8.6q0-3.2-2.5-3.2-1 0-2.4 0.8-1.3 0.8-2.2 1.9v9.2h-1.7v-18.5l1.7-0.3v7.8q0.8-0.9 2.2-1.6 1.4-0.7 2.6-0.7 2 0 3 1.2zm-12.9 10.1l0.5 1.2q-0.8 0.5-2 0.8-1.2 0.3-2.1 0.3-1.9 0-3.2-0.9-1.4-0.8-2.1-2.4-0.7-1.5-0.7-3.5 0-2 0.7-3.5 0.8-1.5 2.2-2.4 1.4-0.9 3.3-0.9 0.8 0 2 0.3 1.3 0.4 2 0.8l-0.5 1.2q-1-0.5-1.7-0.7-0.7-0.2-1.9-0.2-2.1 0-3.3 1.5-1.1 1.5-1.2 3.8 0 2.5 1.2 4 1.1 1.5 3.2 1.5 1.2 0 1.9-0.2 0.6-0.2 1.7-0.7zm-14-10.9h1.7v12.9h-1.7zm0.8-2.8q-0.5 0-0.9-0.4-0.3-0.4-0.3-0.9 0-0.5 0.3-0.9 0.4-0.3 0.9-0.3 0.5 0 0.9 0.3 0.4 0.4 0.4 0.9 0 0.5-0.4 0.9-0.4 0.4-0.9 0.4zm-4.1 3l0.6 1.3h-2.9v8.1q0 1 0.4 1.6 0.5 0.6 1.4 0.6 0.5 0 1.1-0.3l0.3 1.4q-0.1 0-0.5 0.2-0.5 0.1-1.2 0.1-1.5 0-2.3-0.9-0.9-0.9-0.9-2.5v-8.3h-1.9v-1.3h1.9v-3.3l1.7-0.6v3.9zm-18.5 11.9l0.4-1.3q0.9 0.4 2.1 0.7 1.1 0.4 2.4 0.4 2.2 0 3.4-1 1.3-0.9 1.3-2.3 0-1-0.6-1.7-0.5-0.8-1.5-1.4-1.1-0.6-2.8-1.3-4.9-2.1-4.9-5.4-0.1-1.3 0.7-2.3 0.7-1 1.9-1.6 1.3-0.5 3-0.5 1.3 0 2.4 0.3 1.2 0.2 2.1 0.7l-0.6 1.2q-1-0.4-1.8-0.6-0.8-0.3-2-0.3-2 0-3.1 0.9-1.1 0.8-1.1 2.2 0 1 0.5 1.7 0.6 0.7 1.6 1.3 1 0.6 2.9 1.5 1.8 0.8 2.8 1.5 1 0.7 1.5 1.6 0.6 0.9 0.6 2.2 0 1.3-0.8 2.4-0.7 1-2.2 1.6-1.4 0.6-3.3 0.6-1.2 0-2.6-0.3-1.4-0.3-2.3-0.8z"/>
				</g>
			</g>
		</g>
	</g>
</svg>